{"title":"Riddick 2013 READNFO WEBRiP LiNE 5.1 XViD - VAiN","uid":9152206,"size":1713977315,"categoryP":"video","categoryS":"movies","magnet":"?xt=urn:btih:88dc6c674901fd4f5a3f4d64d07938d262c51e04&amp;dn=Riddick+2013+READNFO+WEBRiP+LiNE+5.1+XViD+-+VAiN&amp;tr=udp%3A%2F%2Ftracker.openbittorrent.com%3A80&amp;tr=udp%3A%2F%2Fopen.demonii.com%3A1337&amp;tr=udp%3A%2F%2Ftracker.coppersurfer.tk%3A6969&amp;tr=udp%3A%2F%2Fexodus.desync.com%3A6969","seeders":2,"leechers":0,"uploader":"the.HH","files":3,"time":1383713245,"description":"Riddick 2013 READNFO WEBRiP LiNE 5.1 XViD - VAiN\n\niMDB........: http://www.imdb.com/title/tt1411250/\nPLOT........: Left for dead on a sun-scorched planet, \n Riddick finds himself up against an alien race of predators. \n Activating an emergency beacon alerts two ships: one carrying a new breed of mercenary, \n the other captained by a man from Riddick's past. \n\n\nT E C H N i C A L . i N F O . . . \nGeneral\nFormat : AVI\nFormat/Info : Audio Video Interleave\nFile size : 1.57 GiB\nDuration : 1h 53mn\nOverall bit rate : 1 982 Kbps\nWriting application : VirtualDubMod 1.5.10.2 (build 2540/release)\nWriting library : VirtualDubMod build 2540/release\n\nVideo\nID : 0\nFormat : MPEG-4 Visual\nFormat profile : Advanced Simple@L5\nFormat settings, BVOP : 2\nFormat settings, QPel : No\nFormat settings, GMC : No warppoints\nFormat settings, Matrix : Default (MPEG)\nMuxing mode : Packed bitstream\nCodec ID : XVID\nCodec ID/Hint : XviD\nDuration : 1h 53mn\nBit rate : 1 589 Kbps\nWidth : 720 pixels\nHeight : 384 pixels\nDisplay aspect ratio : 1.875\nFrame rate : 23.976 fps\nColor space : YUV\nChroma subsampling : 4:2:0\nBit depth : 8 bits\nScan type : Progressive\nCompression mode : Lossy\nBits/(Pixel*Frame) : 0.240\nStream size : 1.26 GiB (80%)\nWriting library : XviD 64\n\nAudio\nID : 1\nFormat : AC-3\nFormat/Info : Audio Coding 3\nMode extension : CM (complete main)\nCodec ID : 2000\nDuration : 1h 53mn\nBit rate mode : Constant\nBit rate : 384 Kbps\nChannel(s) : 6 channels\nChannel positions : Front: L C R, Side: L R, LFE\nSampling rate : 48.0 KHz\nBit depth : 16 bits\nCompression mode : Lossy\nStream size : 312 MiB (19%)\nAlignment : Split accross interleaves\nInterleave, duration : 42 ms (1.00 video frame)\nInterleave, preload duration : 500 ms\n\n\n\n\n\n\nE N C O D E R S . N O T E S . . . \n\nSOURCE......: Riddick 2013 WEBRiP HC XviD Mp3-KingStoner (Thanks)\nSAMPLE......: Yes\nADDED NOTE..: same vid as our 1st release this time with some sexy 5.1 TRUE LiNE don't act like you don't love it :wink:\n\n\nR E A D N F O . . .\nHas HC arabic subs &amp; not even sure if it is a webrip, might be a very good cam\n\n[img]https://cdn.secureboxes.net/banner/sbibt.jpg[/img]\n","torrent":{"xt":"urn:btih:88dc6c674901fd4f5a3f4d64d07938d262c51e04","amp;dn":"Riddick+2013+READNFO+WEBRiP+LiNE+5.1+XViD+-+VAiN","amp;tr":["udp%3A%2F%2Ftracker.openbittorrent.com%3A80","udp%3A%2F%2Fopen.demonii.com%3A1337","udp%3A%2F%2Ftracker.coppersurfer.tk%3A6969","udp%3A%2F%2Fexodus.desync.com%3A6969"],"infoHash":"88dc6c674901fd4f5a3f4d64d07938d262c51e04","infoHashBuffer":{"type":"Buffer","data":[136,220,108,103,73,1,253,79,90,63,77,100,208,121,56,210,98,197,30,4]},"announce":[],"urlList":[]}}